<svg width="44" height="44" viewBox="0 0 44 44" fill="none" xmlns="http://www.w3.org/2000/svg">
<path d="M5.5 22C5.5 26.3761 7.23839 30.5729 10.3327 33.6673C13.4271 36.7616 17.6239 38.5 22 38.5C26.3761 38.5 30.5729 36.7616 33.6673 33.6673C36.7616 30.5729 38.5 26.3761 38.5 22C38.5 17.6239 36.7616 13.4271 33.6673 10.3327C30.5729 7.23839 26.3761 5.5 22 5.5C17.6239 5.5 13.4271 7.23839 10.3327 10.3327C7.23839 13.4271 5.5 17.6239 5.5 22Z" fill="white"/>
<path d="M5.5 22C5.5 26.3761 7.23839 30.5729 10.3327 33.6673C13.4271 36.7616 17.6239 38.5 22 38.5C26.3761 38.5 30.5729 36.7616 33.6673 33.6673C36.7616 30.5729 38.5 26.3761 38.5 22C38.5 17.6239 36.7616 13.4271 33.6673 10.3327C30.5729 7.23839 26.3761 5.5 22 5.5C17.6239 5.5 13.4271 7.23839 10.3327 10.3327C7.23839 13.4271 5.5 17.6239 5.5 22Z" stroke="white"/>
<path d="M6.92979 37.0702C2.93292 33.0733 0.6875 27.6524 0.6875 22C0.6875 16.3476 2.93292 10.9267 6.92979 6.92979C10.9267 2.93292 16.3476 0.6875 22 0.6875C27.6524 0.6875 33.0733 2.93292 37.0702 6.92979C41.0671 10.9267 43.3125 16.3476 43.3125 22C43.3125 27.6524 41.0671 33.0733 37.0702 37.0702C33.0733 41.0671 27.6524 43.3125 22 43.3125C16.3476 43.3125 10.9267 41.0671 6.92979 37.0702Z" stroke="white" stroke-width="1.375"/>
<path d="M1.375 22.1528C1.375 27.6634 3.56408 32.9483 7.46067 36.8449C11.3573 40.7415 16.6422 42.9306 22.1528 42.9306C27.6634 42.9306 32.9483 40.7415 36.8449 36.8449C40.7415 32.9483 42.9306 27.6634 42.9306 22.1528C42.9306 16.6422 40.7415 11.3573 36.8449 7.46067C32.9483 3.56408 27.6634 1.375 22.1528 1.375C16.6422 1.375 11.3573 3.56408 7.46067 7.46067C3.56408 11.3573 1.375 16.6422 1.375 22.1528ZM16.709 29.4328C16.5892 29.5568 16.4459 29.6558 16.2875 29.7238C16.129 29.7919 15.9586 29.8277 15.7862 29.8292C15.6138 29.8307 15.4428 29.7978 15.2832 29.7325C15.1236 29.6672 14.9786 29.5708 14.8567 29.4489C14.7347 29.327 14.6383 29.182 14.573 29.0224C14.5077 28.8628 14.4749 28.6918 14.4764 28.5193C14.4779 28.3469 14.5137 28.1765 14.5817 28.0181C14.6498 27.8596 14.7487 27.7163 14.8728 27.5966L25.511 16.9583H18.3219C17.9775 16.9583 17.6472 16.8215 17.4036 16.578C17.1601 16.3344 17.0233 16.0041 17.0233 15.6597C17.0233 15.3153 17.1601 14.985 17.4036 14.7415C17.6472 14.4979 17.9775 14.3611 18.3219 14.3611H28.6458C28.9902 14.3611 29.3206 14.4979 29.5641 14.7415C29.8076 14.985 29.9444 15.3153 29.9444 15.6597V25.9837C29.9444 26.3281 29.8076 26.6584 29.5641 26.9019C29.3206 27.1455 28.9902 27.2823 28.6458 27.2823C28.3014 27.2823 27.9711 27.1455 27.7276 26.9019C27.484 26.6584 27.3472 26.3281 27.3472 25.9837V18.7946L16.709 29.4328Z" fill="#010101"/>
</svg>
