<svg width="19" height="19" viewBox="0 0 19 19" fill="none" xmlns="http://www.w3.org/2000/svg">
<g clip-path="url(#clip0_1634_2421)">
<path d="M9.11501 7.52766C9.23876 7.15641 9.76301 7.15641 9.88676 7.52766L10.6124 9.70678C10.7721 10.1858 11.0412 10.621 11.3984 10.978C11.7555 11.335 12.1909 11.6038 12.67 11.7633L14.848 12.4889C15.2193 12.6127 15.2193 13.1369 14.848 13.2607L12.6689 13.9863C12.1899 14.146 11.7546 14.4151 11.3977 14.7723C11.0407 15.1294 10.7718 15.5648 10.6124 16.0439L9.88676 18.2219C9.86008 18.3032 9.80841 18.374 9.73911 18.4242C9.66982 18.4744 9.58645 18.5014 9.50089 18.5014C9.41533 18.5014 9.33195 18.4744 9.26266 18.4242C9.19336 18.374 9.14169 18.3032 9.11501 18.2219L8.38939 16.0428C8.22978 15.5639 7.96085 15.1287 7.6039 14.7718C7.24695 14.4148 6.81179 14.1459 6.33289 13.9863L4.15376 13.2607C4.07247 13.234 4.00168 13.1823 3.95149 13.113C3.9013 13.0437 3.87428 12.9603 3.87428 12.8748C3.87428 12.7892 3.9013 12.7058 3.95149 12.6366C4.00168 12.5673 4.07247 12.5156 4.15376 12.4889L6.33289 11.7633C6.81179 11.6037 7.24695 11.3347 7.6039 10.9778C7.96085 10.6208 8.22978 10.1857 8.38939 9.70678L9.11501 7.52766ZM4.76914 1.79128C4.78527 1.74256 4.81634 1.70017 4.85795 1.67012C4.89955 1.64007 4.94957 1.62389 5.00089 1.62389C5.05221 1.62389 5.10222 1.64007 5.14382 1.67012C5.18543 1.70017 5.2165 1.74256 5.23264 1.79128L5.66801 3.09853C5.86264 3.68128 6.31939 4.13803 6.90214 4.33266L8.20939 4.76803C8.2581 4.78416 8.3005 4.81524 8.33055 4.85684C8.3606 4.89845 8.37677 4.94846 8.37677 4.99978C8.37677 5.0511 8.3606 5.10112 8.33055 5.14272C8.3005 5.18432 8.2581 5.2154 8.20939 5.23153L6.90214 5.66691C6.61456 5.76235 6.35324 5.92362 6.13898 6.13787C5.92472 6.35213 5.76345 6.61345 5.66801 6.90103L5.23264 8.20828C5.2165 8.257 5.18543 8.29939 5.14382 8.32944C5.10222 8.35949 5.05221 8.37567 5.00089 8.37567C4.94957 8.37567 4.89955 8.35949 4.85795 8.32944C4.81634 8.29939 4.78527 8.257 4.76914 8.20828L4.33376 6.90103C4.23832 6.61345 4.07705 6.35213 3.86279 6.13787C3.64854 5.92362 3.38721 5.76235 3.09964 5.66691L1.79239 5.23153C1.74367 5.2154 1.70127 5.18432 1.67122 5.14272C1.64117 5.10112 1.625 5.0511 1.625 4.99978C1.625 4.94846 1.64117 4.89845 1.67122 4.85684C1.70127 4.81524 1.74367 4.78416 1.79239 4.76803L3.09964 4.33266C3.38721 4.23721 3.64854 4.07594 3.86279 3.86169C4.07705 3.64743 4.23832 3.38611 4.33376 3.09853L4.76914 1.79128ZM12.7218 0.611155C12.7329 0.579122 12.7537 0.551346 12.7813 0.531687C12.8089 0.512028 12.842 0.501465 12.8759 0.501465C12.9098 0.501465 12.9428 0.512028 12.9705 0.531687C12.9981 0.551346 13.0189 0.579122 13.03 0.611155L13.3203 1.48191C13.4496 1.87116 13.7545 2.17603 14.1438 2.30541L15.0145 2.59566C15.0465 2.60676 15.0743 2.62757 15.094 2.65519C15.1136 2.68282 15.1242 2.71588 15.1242 2.74978C15.1242 2.78368 15.1136 2.81674 15.094 2.84437C15.0743 2.87199 15.0465 2.8928 15.0145 2.90391L14.1438 3.19416C13.9521 3.25828 13.778 3.36604 13.6351 3.50895C13.4921 3.65185 13.3844 3.826 13.3203 4.01766L13.03 4.88841C13.0189 4.92044 12.9981 4.94822 12.9705 4.96787C12.9428 4.98753 12.9098 4.9981 12.8759 4.9981C12.842 4.9981 12.8089 4.98753 12.7813 4.96787C12.7537 4.94822 12.7329 4.92044 12.7218 4.88841L12.4315 4.01766C12.3674 3.826 12.2596 3.65185 12.1167 3.50895C11.9738 3.36604 11.7997 3.25828 11.608 3.19416L10.7384 2.90391C10.7064 2.8928 10.6786 2.87199 10.6589 2.84437C10.6393 2.81674 10.6287 2.78368 10.6287 2.74978C10.6287 2.71588 10.6393 2.68282 10.6589 2.65519C10.6786 2.62757 10.7064 2.60676 10.7384 2.59566L11.6091 2.30541C11.9984 2.17603 12.3033 1.87116 12.4326 1.48191L12.7218 0.611155Z" fill="#00CBF7"/>
</g>
<defs>
<clipPath id="clip0_1634_2421">
<rect width="18" height="18" fill="white" transform="translate(0.5 0.5)"/>
</clipPath>
</defs>
</svg>
