<svg width="35" height="27" viewBox="0 0 35 27" fill="none" xmlns="http://www.w3.org/2000/svg">
<path d="M29.2437 2.73692C27.0635 1.72059 24.703 0.982922 22.2441 0.556716C22.2226 0.556027 22.2011 0.560072 22.1813 0.568569C22.1615 0.577066 22.1437 0.589807 22.1294 0.605894C21.8343 1.14685 21.4901 1.85173 21.2606 2.39268C18.6525 1.99926 16.0002 1.99926 13.3921 2.39268C13.1626 1.83533 12.8184 1.14685 12.5069 0.605894C12.4906 0.573109 12.4414 0.556716 12.3922 0.556716C9.93331 0.982922 7.58918 1.72059 5.39258 2.73692C5.37618 2.73692 5.35979 2.75332 5.3434 2.76971C0.884628 9.44147 -0.344813 15.9329 0.261711 22.3588C0.261711 22.3916 0.278103 22.4244 0.310888 22.4408C3.26155 24.6046 6.09746 25.916 8.90058 26.7848C8.94976 26.8012 8.99894 26.7848 9.01533 26.752C9.67103 25.8504 10.2612 24.8996 10.7693 23.8997C10.8021 23.8341 10.7693 23.7686 10.7038 23.7522C9.76939 23.3915 8.88419 22.9653 8.01539 22.4735C7.94982 22.4408 7.94981 22.3424 7.99899 22.2932C8.17931 22.1621 8.35963 22.0146 8.53995 21.8834C8.57273 21.8506 8.62191 21.8506 8.65469 21.867C14.2937 24.4407 20.3754 24.4407 25.9488 21.867C25.9816 21.8506 26.0308 21.8506 26.0636 21.8834C26.2439 22.0309 26.4242 22.1621 26.6045 22.3096C26.6701 22.3588 26.6701 22.4572 26.5881 22.4899C25.7357 22.9981 24.8341 23.4079 23.8998 23.7686C23.8342 23.7849 23.8178 23.8669 23.8342 23.9161C24.3588 24.916 24.9489 25.8668 25.5882 26.7684C25.6374 26.7848 25.6865 26.8012 25.7357 26.7848C28.5552 25.916 31.3912 24.6046 34.3418 22.4408C34.3746 22.4244 34.391 22.3916 34.391 22.3588C35.1123 14.933 33.1943 8.49071 29.3093 2.76971C29.2929 2.75332 29.2765 2.73692 29.2437 2.73692ZM11.6217 18.441C9.93331 18.441 8.52355 16.8837 8.52355 14.9658C8.52355 13.0478 9.90053 11.4905 11.6217 11.4905C13.3594 11.4905 14.7363 13.0642 14.7199 14.9658C14.7199 16.8837 13.343 18.441 11.6217 18.441ZM23.0473 18.441C21.3589 18.441 19.9492 16.8837 19.9492 14.9658C19.9492 13.0478 21.3261 11.4905 23.0473 11.4905C24.785 11.4905 26.1619 13.0642 26.1455 14.9658C26.1455 16.8837 24.785 18.441 23.0473 18.441Z" fill="#C1C1C1"/>
</svg>
