<svg width="34" height="34" viewBox="0 0 34 34" fill="none" xmlns="http://www.w3.org/2000/svg">
<path d="M9.82018 0.278809H23.5899C28.8355 0.278809 33.0976 4.54087 33.0976 9.78648V23.5562C33.0976 26.0778 32.0959 28.4961 30.3129 30.2792C28.5298 32.0622 26.1115 33.0639 23.5899 33.0639H9.82018C4.57456 33.0639 0.3125 28.8018 0.3125 23.5562V9.78648C0.3125 7.26489 1.3142 4.84658 3.09723 3.06354C4.88027 1.28051 7.29858 0.278809 9.82018 0.278809ZM9.49232 3.55732C7.9272 3.55732 6.42618 4.17906 5.31946 5.28577C4.21275 6.39248 3.59101 7.89351 3.59101 9.45863V23.8841C3.59101 27.1462 6.23021 29.7854 9.49232 29.7854H23.9178C25.4829 29.7854 26.9839 29.1636 28.0906 28.0569C29.1973 26.9502 29.8191 25.4492 29.8191 23.8841V9.45863C29.8191 6.19652 27.1799 3.55732 23.9178 3.55732H9.49232ZM25.3111 6.0162C25.8546 6.0162 26.3758 6.23208 26.76 6.61636C27.1443 7.00063 27.3602 7.52182 27.3602 8.06527C27.3602 8.60871 27.1443 9.1299 26.76 9.51418C26.3758 9.89845 25.8546 10.1143 25.3111 10.1143C24.7677 10.1143 24.2465 9.89845 23.8622 9.51418C23.4779 9.1299 23.2621 8.60871 23.2621 8.06527C23.2621 7.52182 23.4779 7.00063 23.8622 6.61636C24.2465 6.23208 24.7677 6.0162 25.3111 6.0162ZM16.705 8.47508C18.8788 8.47508 20.9636 9.33861 22.5007 10.8757C24.0378 12.4128 24.9013 14.4976 24.9013 16.6714C24.9013 18.8451 24.0378 20.9299 22.5007 22.467C20.9636 24.0041 18.8788 24.8676 16.705 24.8676C14.5313 24.8676 12.4465 24.0041 10.9094 22.467C9.3723 20.9299 8.50877 18.8451 8.50877 16.6714C8.50877 14.4976 9.3723 12.4128 10.9094 10.8757C12.4465 9.33861 14.5313 8.47508 16.705 8.47508ZM16.705 11.7536C15.4008 11.7536 14.1499 12.2717 13.2277 13.194C12.3054 14.1162 11.7873 15.3671 11.7873 16.6714C11.7873 17.9756 12.3054 19.2265 13.2277 20.1487C14.1499 21.071 15.4008 21.5891 16.705 21.5891C18.0093 21.5891 19.2602 21.071 20.1824 20.1487C21.1047 19.2265 21.6228 17.9756 21.6228 16.6714C21.6228 15.3671 21.1047 14.1162 20.1824 13.194C19.2602 12.2717 18.0093 11.7536 16.705 11.7536Z" fill="#C1C1C1"/>
</svg>
