<svg width="33" height="33" viewBox="0 0 33 33" fill="none" xmlns="http://www.w3.org/2000/svg">
<g clip-path="url(#clip0_1578_1151)">
<path d="M27.6859 28.1183H22.879V20.5752C22.879 18.7765 22.8414 16.465 20.3653 16.465C17.8587 16.465 17.4769 18.416 17.4769 20.4422V28.1172H12.6638V12.6076H17.287V14.7232H17.3489C17.9948 13.5014 19.566 12.2166 21.9101 12.2166C26.7861 12.2166 27.691 15.427 27.691 19.6012V28.1172L27.6859 28.1183ZM7.22617 10.488C6.8588 10.4882 6.495 10.4158 6.15563 10.2751C5.81625 10.1344 5.50797 9.92819 5.24843 9.66818C4.98889 9.40817 4.7832 9.09951 4.64314 8.75988C4.50307 8.42026 4.43139 8.05633 4.43219 7.68896C4.43279 7.136 4.59734 6.59564 4.90502 6.13619C5.21271 5.67675 5.64972 5.31885 6.16079 5.10775C6.67187 4.89666 7.23406 4.84184 7.77629 4.95023C8.31852 5.05863 8.81643 5.32536 9.20708 5.71672C9.59772 6.10807 9.86355 6.60647 9.97096 7.14889C10.0784 7.69132 10.0225 8.25341 9.81051 8.7641C9.59848 9.27479 9.23979 9.71115 8.77979 10.018C8.31979 10.3249 7.77913 10.4884 7.22617 10.488ZM9.63727 28.1183H4.81406V12.6086H9.63727V28.1183ZM30.0991 0.421143H2.39687C1.07352 0.421143 0 1.46825 0 2.76419V30.5791C0 31.875 1.07352 32.9222 2.39687 32.9222H30.094C31.4153 32.9222 32.5 31.875 32.5 30.5791V2.76419C32.5 1.46825 31.4153 0.421143 30.094 0.421143H30.0991Z" fill="#C1C1C1"/>
</g>
<defs>
<clipPath id="clip0_1578_1151">
<rect width="32.5" height="32.5" fill="white" transform="translate(0 0.421143)"/>
</clipPath>
</defs>
</svg>
