<svg width="240" height="65" viewBox="0 0 240 65" fill="none" xmlns="http://www.w3.org/2000/svg">
<g clip-path="url(#clip0_1712_1362)">
<path d="M64.7619 50.9862C64.2831 50.9862 63.8595 50.8572 63.4911 50.5994C63.1228 50.3416 62.8649 50.01 62.7176 49.6049L54.0983 23.747C53.8773 22.8262 53.8957 22.1079 54.1536 21.5922C54.4114 21.0397 54.9271 20.7634 55.7006 20.7634C56.1795 20.7634 56.6031 20.8923 56.9714 21.1502C57.3398 21.408 57.616 21.8132 57.8002 22.3657L65.4802 45.8477H64.2646L71.3921 22.421C71.5395 21.9421 71.7789 21.5554 72.1104 21.2607C72.4787 20.9292 72.9392 20.7634 73.4917 20.7634C74.0442 20.7634 74.4862 20.9108 74.8177 21.2054C75.1861 21.5001 75.4439 21.9053 75.5913 22.421L82.3872 45.2952H81.448L88.9622 22.3657C89.3305 21.2975 90.012 20.7634 91.0065 20.7634C91.8169 20.7634 92.3694 21.0765 92.6641 21.7027C92.9587 22.2921 92.9587 22.9735 92.6641 23.747L84.0448 49.6049C83.8975 50.01 83.6396 50.3416 83.2713 50.5994C82.9398 50.8572 82.5346 50.9862 82.0557 50.9862C81.5769 50.9862 81.1349 50.8572 80.7297 50.5994C80.3613 50.3416 80.1219 50.01 80.0114 49.6049L73.0497 26.5096H73.7127L66.751 49.6049C66.6036 50.0469 66.3458 50.3968 65.9775 50.6547C65.6091 50.8757 65.2039 50.9862 64.7619 50.9862Z" fill="#01B7E8"/>
<path d="M111.051 51.2621C108.214 51.2621 105.673 50.599 103.425 49.273C101.179 47.9101 99.3927 46.0684 98.0666 43.7478C96.7768 41.4273 96.1328 38.812 96.1328 35.9021C96.1328 32.9553 96.7953 30.3216 98.1213 28.0011C99.4842 25.6805 101.326 23.8572 103.647 22.5311C105.968 21.1683 108.583 20.4868 111.493 20.4868C114.403 20.4868 116.999 21.1683 119.283 22.5311C121.603 23.8572 123.427 25.6805 124.753 28.0011C126.116 30.3216 126.816 32.9553 126.853 35.9021L125.139 37.2281C125.139 39.8802 124.513 42.2744 123.261 44.4108C122.046 46.5104 120.37 48.1864 118.233 49.4388C116.134 50.6543 113.739 51.2621 111.051 51.2621ZM111.493 47.3944C113.629 47.3944 115.526 46.8972 117.184 45.9026C118.878 44.9081 120.204 43.5452 121.161 41.814C122.156 40.046 122.654 38.0753 122.654 35.9021C122.654 33.692 122.156 31.7213 121.161 29.9901C120.204 28.2589 118.878 26.896 117.184 25.9015C115.526 24.8701 113.629 24.3544 111.493 24.3544C109.393 24.3544 107.496 24.8701 105.802 25.9015C104.107 26.896 102.762 28.2589 101.768 29.9901C100.773 31.7213 100.276 33.692 100.276 35.9021C100.276 38.0753 100.773 40.046 101.768 41.814C102.762 43.5452 104.107 44.9081 105.802 45.9026C107.496 46.8972 109.393 47.3944 111.493 47.3944ZM124.698 50.9858C124.072 50.9858 123.556 50.8016 123.151 50.4333C122.746 50.0281 122.543 49.5124 122.543 48.8862V39.4382L123.593 35.0733L126.853 35.9021V48.8862C126.853 49.5124 126.65 50.0281 126.244 50.4333C125.84 50.8016 125.324 50.9858 124.698 50.9858Z" fill="#01B7E8"/>
<path d="M137.288 63.9147C136.625 63.9147 136.091 63.7121 135.685 63.307C135.317 62.9386 135.133 62.4229 135.133 61.7599V35.6811C135.17 32.808 135.851 30.2296 137.177 27.9458C138.54 25.6252 140.363 23.8019 142.647 22.4759C144.968 21.1498 147.564 20.4868 150.438 20.4868C153.384 20.4868 156.018 21.1683 158.339 22.5311C160.659 23.8572 162.482 25.6805 163.808 28.0011C165.171 30.3216 165.853 32.9553 165.853 35.9021C165.853 38.812 165.19 41.4273 163.864 43.7478C162.575 46.0684 160.806 47.9101 158.56 49.273C156.313 50.599 153.771 51.2621 150.935 51.2621C148.467 51.2621 146.22 50.7464 144.194 49.715C142.205 48.6468 140.603 47.2471 139.387 45.5159V61.7599C139.387 62.4229 139.185 62.9386 138.779 63.307C138.411 63.7121 137.914 63.9147 137.288 63.9147ZM150.438 47.3944C152.574 47.3944 154.489 46.8972 156.184 45.9026C157.878 44.9081 159.204 43.5452 160.162 41.814C161.156 40.046 161.654 38.0753 161.654 35.9021C161.654 33.692 161.156 31.7213 160.162 29.9901C159.204 28.2589 157.878 26.896 156.184 25.9015C154.489 24.8701 152.574 24.3544 150.438 24.3544C148.338 24.3544 146.441 24.8701 144.747 25.9015C143.052 26.896 141.726 28.2589 140.768 29.9901C139.811 31.7213 139.332 33.692 139.332 35.9021C139.332 38.0753 139.811 40.046 140.768 41.814C141.726 43.5452 143.052 44.9081 144.747 45.9026C146.441 46.8972 148.338 47.3944 150.438 47.3944Z" fill="#01B7E8"/>
<path d="M188.008 51.5382C185.65 51.5382 183.458 51.2067 181.433 50.5437C179.444 49.8438 177.712 48.8677 176.239 47.6153C174.766 46.3629 173.642 44.908 172.869 43.2504C172.574 42.6611 172.555 42.127 172.813 41.6481C173.108 41.1324 173.587 40.7825 174.25 40.5983C174.766 40.451 175.263 40.5062 175.742 40.7641C176.257 41.0219 176.644 41.4087 176.902 41.9244C177.454 42.9926 178.265 43.9503 179.333 44.7975C180.401 45.6447 181.672 46.3077 183.145 46.7865C184.619 47.2285 186.239 47.4496 188.008 47.4496C189.96 47.4496 191.691 47.1365 193.201 46.5103C194.711 45.8472 195.89 44.908 196.737 43.6924C197.621 42.4401 198.063 40.9298 198.063 39.1618C198.063 36.9149 197.235 34.9811 195.577 33.3603C193.919 31.7396 191.323 30.7083 187.787 30.2662C183.477 29.7506 180.107 28.4245 177.675 26.2881C175.244 24.1149 174.029 21.4628 174.029 18.3319C174.029 16.0849 174.618 14.1327 175.797 12.4752C177.012 10.8176 178.67 9.54682 180.77 8.66279C182.869 7.74193 185.282 7.28149 188.008 7.28149C190.033 7.28149 191.875 7.613 193.533 8.27603C195.19 8.90221 196.627 9.74941 197.842 10.8176C199.095 11.849 200.108 12.9908 200.881 14.2432C201.25 14.8326 201.36 15.4035 201.213 15.956C201.102 16.5085 200.789 16.9321 200.273 17.2268C199.721 17.4847 199.15 17.5215 198.561 17.3373C198.008 17.1531 197.585 16.8032 197.29 16.2875C196.737 15.4403 196.037 14.6484 195.19 13.9117C194.38 13.1382 193.385 12.5304 192.207 12.0884C191.028 11.6464 189.61 11.407 187.952 11.3701C185.042 11.3701 182.703 11.9963 180.935 13.2487C179.167 14.4642 178.283 16.2507 178.283 18.6081C178.283 19.8605 178.615 21.0208 179.278 22.089C179.941 23.1203 181.027 24.0228 182.538 24.7963C184.085 25.533 186.147 26.0855 188.726 26.4539C193.33 27.1169 196.737 28.535 198.947 30.7083C201.194 32.8447 202.318 35.6441 202.318 39.1065C202.318 41.0956 201.949 42.8636 201.213 44.4107C200.513 45.9578 199.5 47.2654 198.174 48.3336C196.885 49.3649 195.356 50.1569 193.588 50.7094C191.857 51.2619 189.997 51.5382 188.008 51.5382Z" fill="#01B7E8"/>
<path d="M224.547 51.2621C221.601 51.2621 218.967 50.599 216.646 49.273C214.326 47.947 212.503 46.1237 211.177 43.8031C209.851 41.4825 209.188 38.8488 209.188 35.9021C209.188 32.9185 209.851 30.2664 211.177 27.9458C212.503 25.6252 214.326 23.8019 216.646 22.4759C218.967 21.1498 221.601 20.4868 224.547 20.4868C227.494 20.4868 230.109 21.1498 232.393 22.4759C234.714 23.8019 236.537 25.6252 237.863 27.9458C239.189 30.2664 239.871 32.9185 239.907 35.9021C239.907 38.8488 239.226 41.4825 237.863 43.8031C236.537 46.1237 234.714 47.947 232.393 49.273C230.109 50.599 227.494 51.2621 224.547 51.2621ZM224.547 47.3944C226.684 47.3944 228.599 46.8972 230.294 45.9026C231.988 44.9081 233.314 43.5452 234.272 41.814C235.23 40.0828 235.708 38.1121 235.708 35.9021C235.708 33.692 235.23 31.7213 234.272 29.9901C233.314 28.2221 231.988 26.8408 230.294 25.8462C228.599 24.8517 226.684 24.3544 224.547 24.3544C222.411 24.3544 220.496 24.8517 218.801 25.8462C217.107 26.8408 215.762 28.2221 214.768 29.9901C213.81 31.7213 213.331 33.692 213.331 35.9021C213.331 38.1121 213.81 40.0828 214.768 41.814C215.762 43.5452 217.107 44.9081 218.801 45.9026C220.496 46.8972 222.411 47.3944 224.547 47.3944Z" fill="#01B7E8"/>
<path d="M52.9522 14.6328L37.4174 0.338135V5.91653C37.4174 5.91653 31.4903 5.56788 21.6676 5.91653C11.8449 6.26516 1.64338 7.31114 2.3383 17.945C3.03323 28.5788 31.7112 45.4883 27.2159 38.341C22.7205 31.1937 6.67568 14.6328 22.0466 14.6328H52.9522Z" fill="url(#paint0_linear_1712_1362)"/>
<path d="M0 47.6261L15.3582 61.9207V56.3423C15.3582 56.3423 21.218 56.691 30.929 56.3423C40.6401 55.9937 50.7258 54.9477 50.0387 44.3139C49.3517 33.6801 20.9996 16.7706 25.4439 23.9179C29.8881 31.0652 45.7506 47.6261 30.5544 47.6261H0Z" fill="url(#paint1_linear_1712_1362)"/>
</g>
<defs>
<linearGradient id="paint0_linear_1712_1362" x1="0.051574" y1="18.0977" x2="21.005" y2="91.9773" gradientUnits="userSpaceOnUse">
<stop stop-color="#00D6FF"/>
<stop offset="1" stop-color="#0077B8"/>
</linearGradient>
<linearGradient id="paint1_linear_1712_1362" x1="50.0617" y1="50.8274" x2="25.463" y2="21.846" gradientUnits="userSpaceOnUse">
<stop stop-color="#01D2FC"/>
<stop offset="1" stop-color="#0077B8"/>
</linearGradient>
<clipPath id="clip0_1712_1362">
<rect width="240" height="63.8849" fill="white" transform="translate(0 0.337891)"/>
</clipPath>
</defs>
</svg>
