<svg width="34" height="34" viewBox="0 0 34 34" fill="none" xmlns="http://www.w3.org/2000/svg">
<path d="M17.08 0.278809C8.03136 0.278809 0.6875 7.62267 0.6875 16.6714C0.6875 25.72 8.03136 33.0639 17.08 33.0639C26.1287 33.0639 33.4726 25.72 33.4726 16.6714C33.4726 7.62267 26.1287 0.278809 17.08 0.278809ZM24.6862 11.4257C24.4403 14.0158 23.3748 20.3105 22.8338 23.212C22.6043 24.4414 22.1453 24.8512 21.7191 24.9004C20.7684 24.9824 20.0471 24.2775 19.1291 23.671C17.6866 22.7202 16.8669 22.1301 15.4736 21.2121C13.8507 20.1466 14.8998 19.5564 15.8342 18.6057C16.0801 18.3598 20.2766 14.5403 20.3586 14.1961C20.3699 14.1439 20.3684 14.0898 20.3541 14.0384C20.3399 13.987 20.3132 13.9398 20.2766 13.901C20.1782 13.819 20.0471 13.8518 19.9323 13.8682C19.7848 13.901 17.4899 15.4255 13.0147 18.4417C12.359 18.8843 11.7689 19.1138 11.2443 19.0974C10.6542 19.0811 9.53947 18.7696 8.70345 18.4909C7.67072 18.1631 6.86749 17.9828 6.93306 17.409C6.96584 17.114 7.37566 16.8189 8.14611 16.5074C12.9327 14.4256 16.1129 13.0486 17.703 12.3929C22.2601 10.4914 23.1945 10.1635 23.8174 10.1635C23.9485 10.1635 24.26 10.1963 24.4567 10.3602C24.6206 10.4914 24.6698 10.6717 24.6862 10.8028C24.6698 10.9012 24.7026 11.1962 24.6862 11.4257Z" fill="#C1C1C1"/>
</svg>
